<?xml version="1.0" encoding="iso-8859-1"?>
<!-- Generator: Adobe Illustrator 19.0.0, SVG Export Plug-In . SVG Version: 6.00 Build 0)  -->
<svg version="1.1" id="Capa_1" xmlns="http://www.w3.org/2000/svg" xmlns:xlink="http://www.w3.org/1999/xlink" x="0px" y="0px"
	 viewBox="0 0 60 60" style="enable-background:new 0 0 60 60;" xml:space="preserve">
<path d="M54,35v-5h1v-2.614c0-5.639-2.104-11.077-5.905-15.407c0.066-0.247,0.112-0.5,0.111-0.76
	c-0.003-0.807-0.345-1.577-0.938-2.115C43.845,5.097,35.73,3,30,3S16.155,5.097,11.732,9.103c-0.593,0.538-0.935,1.309-0.938,2.115
	c0,0.104,0.021,0.205,0.031,0.308C7.075,15.865,5,21.469,5,27.386V30h1v5c-3.309,0-6,2.691-6,6v10c0,3.309,2.691,6,6,6h0.29H7h4.514
	C13.987,57,16,54.987,16,52.514V39.787c0-2.37-1.736-4.329-4-4.708V30h1v-2.614c0-3.813,1.366-7.576,3.744-10.421
	c0.709,0.011,1.425-0.221,1.977-0.698C20.977,14.313,26.374,13,30,13s9.023,1.313,11.279,3.267c0.423,0.366,0.938,0.598,1.481,0.684
	C45.452,19.855,47,23.633,47,27.386V30h1v5.08c-2.264,0.378-4,2.337-4,4.708v12.727C44,54.987,46.013,57,48.486,57H53h0.71H54
	c3.309,0,6-2.691,6-6V41C60,37.691,57.309,35,54,35z M13.873,39H12c-0.552,0-1,0.447-1,1s0.448,1,1,1h2v2h-2c-0.552,0-1,0.447-1,1
	s0.448,1,1,1h2v2h-2c-0.552,0-1,0.447-1,1s0.448,1,1,1h2v2h-2c-0.552,0-1,0.447-1,1s0.448,1,1,1h1.951c-0.227,1.139-1.233,2-2.437,2
	H7V37h4.213C12.475,37,13.531,37.848,13.873,39z M11,27.386V28H7v-0.614c0-5.156,1.699-10.058,4.807-13.941l2.978,2.737
	C12.336,19.335,11,23.269,11,27.386z M44.953,16.404c0.072-0.055,0.141-0.112,0.207-0.173l2.783-2.557
	C51.212,17.574,53,22.402,53,27.386V28h-4v-0.614C49,23.48,47.54,19.553,44.953,16.404z M53,55h-4.514c-1.205,0-2.21-0.861-2.437-2
	H48c0.552,0,1-0.447,1-1s-0.448-1-1-1h-2v-2h2c0.552,0,1-0.447,1-1s-0.448-1-1-1h-2v-2h2c0.552,0,1-0.447,1-1s-0.448-1-1-1h-2v-2h2
	c0.552,0,1-0.447,1-1s-0.448-1-1-1h-1.873c0.342-1.152,1.398-2,2.66-2H53V55z"/>
<g>
</g>
<g>
</g>
<g>
</g>
<g>
</g>
<g>
</g>
<g>
</g>
<g>
</g>
<g>
</g>
<g>
</g>
<g>
</g>
<g>
</g>
<g>
</g>
<g>
</g>
<g>
</g>
<g>
</g>
</svg>
