<?xml version="1.0" encoding="iso-8859-1"?>
<!-- Generator: Adobe Illustrator 18.0.0, SVG Export Plug-In . SVG Version: 6.00 Build 0)  -->
<!DOCTYPE svg PUBLIC "-//W3C//DTD SVG 1.1//EN" "http://www.w3.org/Graphics/SVG/1.1/DTD/svg11.dtd">
<svg version="1.1" id="Capa_1" xmlns="http://www.w3.org/2000/svg" xmlns:xlink="http://www.w3.org/1999/xlink" x="0px" y="0px"
	 viewBox="0 0 462.576 462.576" style="enable-background:new 0 0 462.576 462.576;" xml:space="preserve">
<g id="XMLID_225_">
	<path id="XMLID_233_" d="M170.923,262.072l-27.187-2.703c-1.012-0.11-2.017-0.164-3.012-0.164v-2.209l0,0l3.939-10.866
		c1.77-4.882-0.734-10.371-5.694-12.168c-4.754-1.723-9.969,0.586-11.945,5.163c-8.204-7.333-21.283-1.514-21.283,9.521
		c0,7.011,5.772,12.988,13.176,12.76l-2.468,6.808c-2.28-3.5-6.22-5.818-10.709-5.818c-6.931,0-12.78,5.637-12.78,12.78
		c0,8.558,8.303,14.746,16.537,12.216l-2.288,6.312c-8.053-8.008-21.789-2.267-21.789,9.061c0,7.398,6.306,13.38,13.893,12.723
		c-2.28,6.288,0.887,11.254,5.429,12.9c5.039,1.827,10.434-0.907,12.169-5.694l5.591-15.424c4.12,3.663,9.372,6.132,15.269,6.776
		l27.313,2.715c3.589,0.357,6.797-2.244,7.189-5.831l4.539-41.599C177.207,265.695,174.559,262.433,170.923,262.072z"/>
	<path id="XMLID_231_" d="M296.59,369.762l-45.338-16.098c-3.424-1.216-7.184,0.576-8.399,3.997l-13.099,36.891
		c-1.473,4.148-1.99,8.402-1.68,12.526l-11.872-4.129c-4.962-1.726-10.38,0.928-12.093,5.852c-1.724,4.956,0.896,10.37,5.853,12.093
		l0.266,0.093c-7.264,8.21-1.447,21.235,9.565,21.235c6.964,0,12.78-5.655,12.78-12.78c0-0.235-0.023-0.465-0.035-0.697l6.078,2.114
		c-2.517,2.334-4.102,5.659-4.102,9.363c0,7.058,5.722,12.78,12.78,12.78c7.058,0,12.779-5.722,12.779-12.78
		c0-0.668-0.067-1.318-0.165-1.958l6.258,2.176c-8.529,7.924-2.815,22.134,8.687,22.134c7.708,0,13.842-6.84,12.612-14.754
		c4.857,1.353,9.873-1.319,11.511-6.027c1.719-4.942-0.892-10.369-5.853-12.093l-11.958-4.159c2.716-2.948,4.9-6.475,6.326-10.49
		l13.098-36.891C301.803,374.738,300.013,370.978,296.59,369.762z"/>
	<circle id="XMLID_230_" cx="314.318" cy="38.978" r="38.967"/>
	<path id="XMLID_227_" d="M363.893,189.641l-59.147-15.202l-22.071-63.415l31.976,47.745l11.569-30.299
		c5.186-13.582-1.62-28.796-15.202-33.982l-43.855-16.745c-4.579-1.513-8.377-3.214-15.357-2.505l-74.927,10.668
		c-12.117,1.726-18.86,14.997-13.079,25.806l36.302,67.869l-14.883,38.978c-2.409,4.918-2.928,10.759-0.97,16.334l6.428,18.312
		c3.19,4.23,4.99,9.403,5.152,14.677c0.036,1.168-0.003,2.34-0.131,3.508v0l-4.539,41.598c-0.019,0.175-0.047,0.347-0.069,0.521
		l34.853,3.803c7.265,0.793,14.386-2.213,18.892-7.889c4.524-5.7,5.807-13.323,3.396-20.189l-17.614-50.174l41.326,64.905
		l-11.294,31.812l39.929,14.177l14.755-41.557c2.184-6.149,1.411-12.962-2.094-18.467l-30.424-47.783l6.742-17.657l-6.987-1.796
		c-15.217-3.911-24.01-17.286-24.916-25.946l-7.516-71.791l24.373,70.026c1.924,5.527,6.493,9.808,12.279,11.296l68.315,17.558
		c9.461,2.433,19.071-3.278,21.494-12.704C379.024,201.692,373.337,192.068,363.893,189.641z M206.835,117.307l18.024-2.566
		l-8.079,21.159L206.835,117.307z"/>
</g>
<g>
</g>
<g>
</g>
<g>
</g>
<g>
</g>
<g>
</g>
<g>
</g>
<g>
</g>
<g>
</g>
<g>
</g>
<g>
</g>
<g>
</g>
<g>
</g>
<g>
</g>
<g>
</g>
<g>
</g>
</svg>
